<?xml version="1.0" encoding="UTF-8" standalone="no"?>
<svg
   xmlns:dc="http://purl.org/dc/elements/1.1/"
   xmlns:cc="http://creativecommons.org/ns#"
   xmlns:rdf="http://www.w3.org/1999/02/22-rdf-syntax-ns#"
   xmlns:svg="http://www.w3.org/2000/svg"
   xmlns="http://www.w3.org/2000/svg"
   id="svg8"
   version="1.1"
   viewBox="0 0 6.410471 5.975091"
   height="5.975091mm"
   width="6.410471mm">
  <defs
     id="defs2" />
  <metadata
     id="metadata5">
    <rdf:RDF>
      <cc:Work
         rdf:about="">
        <dc:format>image/svg+xml</dc:format>
        <dc:type
           rdf:resource="http://purl.org/dc/dcmitype/StillImage" />
        <dc:title></dc:title>
      </cc:Work>
    </rdf:RDF>
  </metadata>
  <g
     transform="translate(-175.19952,-224.07579)"
     id="layer1">
    <path
       id="path21"
       d="m 176.20898,229.15372 c 0.14306,-0.73408 -0.002,-1.2367 -0.51528,-1.78862 -0.84277,-0.90575 -0.58978,-1.52542 0.62277,-1.52542 0.58426,0 1.00026,-0.28877 1.27053,-0.88195 0.22101,-0.48507 0.589,-0.88194 0.81776,-0.88194 0.22875,0 0.59674,0.39687 0.81775,0.88194 0.27027,0.59318 0.68627,0.88195 1.27053,0.88195 1.21255,0 1.46554,0.61967 0.62277,1.52542 -0.51354,0.55192 -0.65834,1.05454 -0.51528,1.78862 0.18993,0.97456 0.15255,1.01 -0.82201,0.77956 -0.56154,-0.13278 -1.17974,-0.24141 -1.37376,-0.24141 -0.19403,0 -0.81222,0.10863 -1.37377,0.24141 -0.97456,0.23044 -1.01193,0.195 -0.82201,-0.77956 z m 2.87582,-0.4144 c 0.57229,0.32027 0.63519,0.26855 0.46498,-0.38234 -0.10826,-0.41399 -0.053,-0.84161 0.12282,-0.95027 0.49874,-0.30824 0.37545,-0.86148 -0.19198,-0.86148 -0.2814,0 -0.65462,-0.2555 -0.82938,-0.56778 -0.29205,-0.52186 -0.33537,-0.52186 -0.53563,0 -0.11983,0.31228 -0.46098,0.56778 -0.75811,0.56778 -0.59056,0 -0.73046,0.54636 -0.22058,0.86148 0.17581,0.10866 0.23196,0.53292 0.12477,0.9428 -0.16857,0.6446 -0.10331,0.69623 0.4832,0.38234 0.46677,-0.24981 0.88433,-0.24748 1.33991,0.007 z"
       style="fill:#205ec3;stroke-width:0.35277778" />
  </g>
</svg>
