<?xml version="1.0" encoding="UTF-8" standalone="no"?>
<svg
   xmlns:dc="http://purl.org/dc/elements/1.1/"
   xmlns:cc="http://creativecommons.org/ns#"
   xmlns:rdf="http://www.w3.org/1999/02/22-rdf-syntax-ns#"
   xmlns:svg="http://www.w3.org/2000/svg"
   xmlns="http://www.w3.org/2000/svg"
   id="svg29"
   version="1.1"
   viewBox="0 0 6.15413 5.9223671"
   height="5.9223671mm"
   width="6.15413mm">
  <defs
     id="defs23" />
  <metadata
     id="metadata26">
    <rdf:RDF>
      <cc:Work
         rdf:about="">
        <dc:format>image/svg+xml</dc:format>
        <dc:type
           rdf:resource="http://purl.org/dc/dcmitype/StillImage" />
        <dc:title></dc:title>
      </cc:Work>
    </rdf:RDF>
  </metadata>
  <g
     transform="translate(-103.76706,-152.6806)"
     id="layer1">
    <path
       id="path42"
       d="m 106.47786,158.5829 c -0.13957,-0.13957 0.25642,-0.78014 0.87998,-1.42349 l 1.13374,-1.16972 h -1.07287 c -0.62056,0 -1.33887,0.29394 -1.70385,0.69723 -0.70543,0.7795 -1.51974,0.59136 -0.8634,-0.19947 0.33355,-0.40191 0.26891,-0.49776 -0.33565,-0.49776 -0.41181,0 -0.74875,-0.15875 -0.74875,-0.35278 0,-0.19403 0.33694,-0.35278 0.74875,-0.35278 0.60456,0 0.6692,-0.0959 0.33565,-0.49776 -0.65634,-0.79083 0.15797,-0.97897 0.8634,-0.19947 0.36498,0.40329 1.08329,0.69723 1.70385,0.69723 h 1.07287 l -1.1582,-1.19495 c -0.63701,-0.65723 -1.01195,-1.28534 -0.8332,-1.39582 0.17875,-0.11047 1.0216,0.50893 1.87301,1.37645 l 1.548,1.5773 -1.59478,1.59478 c -0.87713,0.87713 -1.70898,1.48058 -1.84855,1.34101 z"
       style="fill:#302e2e;stroke-width:0.35277778" />
  </g>
</svg>
